<svg width="153" height="38" viewBox="0 0 153 38" fill="none" xmlns="http://www.w3.org/2000/svg">
<path d="M16.7454 7.44241C15.7221 7.44241 14.8464 7.07773 14.1182 6.34837C13.3889 5.62026 13.0242 4.74453 13.0242 3.7212C13.0242 2.69787 13.3889 1.82153 14.1182 1.09217C14.8464 0.364057 15.7221 0 16.7454 0C17.7687 0 18.6451 0.364057 19.3744 1.09217C20.1026 1.82153 20.4666 2.69787 20.4666 3.7212C20.4666 4.74453 20.1026 5.62026 19.3744 6.34837C18.6451 7.07773 17.7687 7.44241 16.7454 7.44241ZM11.1636 37.212V13.0242H0V9.30301H33.4908V13.0242H22.3272V37.212H18.606V26.0484H14.8848V37.212H11.1636Z" fill="#F2F2F2"/>
<path d="M44.7666 26.4803C44.004 26.4803 43.3235 26.3587 42.7253 26.1154C42.1336 25.8722 41.6701 25.5205 41.3348 25.0603C40.9996 24.6001 40.8319 24.0413 40.8319 23.3838C40.8319 22.6409 41.0357 22.0361 41.4433 21.5693C41.8509 21.1026 42.39 20.7476 43.0606 20.5043C43.7377 20.2545 44.4708 20.0901 45.2597 20.0112C46.4102 19.8995 47.2023 19.7976 47.6362 19.7055C48.0767 19.6135 48.297 19.4524 48.297 19.2223C48.297 19.2158 48.297 19.2092 48.297 19.2026C48.297 18.8147 48.1096 18.509 47.7349 18.2855C47.3667 18.062 46.8506 17.9502 46.1866 17.9502C45.4832 17.9502 44.9441 18.0784 44.5694 18.3348C44.2012 18.5846 44.0171 18.9692 44.0171 19.4886H41.0094C41.0094 18.6471 41.2362 17.9371 41.6898 17.3585C42.15 16.78 42.7713 16.3428 43.5536 16.047C44.336 15.7446 45.2202 15.5934 46.2064 15.5934C47.1267 15.5934 47.9781 15.7347 48.7604 16.0174C49.5428 16.2935 50.1706 16.711 50.644 17.2698C51.1239 17.8286 51.3638 18.5386 51.3638 19.3998C51.3638 19.5379 51.3638 19.676 51.3638 19.814C51.3638 19.9455 51.3638 20.0803 51.3638 20.2183V23.9262C51.3638 24.1957 51.3704 24.4554 51.3836 24.7052C51.4033 24.9485 51.4427 25.172 51.5019 25.3758C51.5676 25.6059 51.6498 25.7966 51.7484 25.9478C51.847 26.099 51.9292 26.2042 51.995 26.2633H48.9873C48.9412 26.2173 48.8689 26.122 48.7703 25.9774C48.6783 25.8327 48.5994 25.6651 48.5336 25.4744C48.4547 25.2443 48.3956 25.0142 48.3561 24.7841C48.3233 24.5475 48.3068 24.2713 48.3068 23.9558L48.9379 24.3897C48.7539 24.8236 48.4547 25.1983 48.0406 25.5139C47.633 25.8229 47.1465 26.0628 46.5811 26.2338C46.0223 26.3981 45.4174 26.4803 44.7666 26.4803ZM45.5851 24.1925C46.065 24.1925 46.5121 24.107 46.9262 23.9361C47.347 23.7586 47.6888 23.4824 47.9518 23.1077C48.2148 22.733 48.3463 22.2432 48.3463 21.6384V20.5832L49.1056 21.3228C48.6717 21.4806 48.1688 21.6121 47.5968 21.7173C47.0314 21.8159 46.466 21.8948 45.9006 21.9539C45.2301 22.0197 44.7271 22.1347 44.3919 22.2991C44.0631 22.4569 43.8988 22.7264 43.8988 23.1077C43.8988 23.4693 44.0401 23.7421 44.3228 23.9262C44.6055 24.1037 45.0263 24.1925 45.5851 24.1925Z" fill="#F2F2F2"/>
<path d="M58.8768 26.5C57.7263 26.5 56.7172 26.2699 55.8494 25.8097C54.9816 25.343 54.3077 24.6954 53.8278 23.867C53.3544 23.0387 53.1178 22.0821 53.1178 20.9974C53.1178 19.8995 53.3544 18.9495 53.8278 18.1474C54.3077 17.3388 54.9816 16.711 55.8494 16.2639C56.7172 15.8169 57.7263 15.5934 58.8768 15.5934C59.738 15.5934 60.5006 15.7216 61.1646 15.9779C61.8286 16.2278 62.3842 16.5598 62.8312 16.9739C63.2783 17.3881 63.6168 17.8417 63.8469 18.3348C64.077 18.8279 64.1921 19.3177 64.1921 19.8042C64.1921 19.8107 64.1921 19.8239 64.1921 19.8436C64.1921 19.8567 64.1921 19.8699 64.1921 19.883H61.1646C61.1646 19.8436 61.1614 19.8074 61.1548 19.7746C61.1548 19.7351 61.1482 19.6957 61.1351 19.6562C61.0825 19.3801 60.9674 19.1204 60.7899 18.8772C60.6124 18.6339 60.3626 18.4367 60.0404 18.2855C59.7249 18.1277 59.3304 18.0488 58.8571 18.0488C58.3509 18.0488 57.8972 18.1606 57.4962 18.3841C57.1018 18.6076 56.7895 18.9396 56.5594 19.3801C56.3293 19.814 56.2142 20.3531 56.2142 20.9974C56.2142 21.6285 56.3293 22.1742 56.5594 22.6344C56.7895 23.088 57.1018 23.4364 57.4962 23.6797C57.8972 23.9229 58.3509 24.0445 58.8571 24.0445C59.3765 24.0445 59.8005 23.9656 60.1292 23.8079C60.4579 23.6435 60.7044 23.4266 60.8688 23.157C61.0332 22.8809 61.1318 22.5785 61.1646 22.2498H64.1921C64.1921 22.7363 64.077 23.2326 63.8469 23.7388C63.6234 24.2385 63.2881 24.6954 62.8411 25.1096C62.4006 25.5237 61.8484 25.859 61.1844 26.1154C60.5204 26.3718 59.7512 26.5 58.8768 26.5Z" fill="#F2F2F2"/>
<path d="M71.3769 26.5C70.2264 26.5 69.2172 26.2699 68.3494 25.8097C67.4816 25.343 66.8078 24.6954 66.3278 23.867C65.8545 23.0387 65.6178 22.0821 65.6178 20.9974C65.6178 19.8995 65.8545 18.9495 66.3278 18.1474C66.8078 17.3388 67.4816 16.711 68.3494 16.2639C69.2172 15.8169 70.2264 15.5934 71.3769 15.5934C72.2381 15.5934 73.0007 15.7216 73.6647 15.9779C74.3287 16.2278 74.8842 16.5598 75.3313 16.9739C75.7783 17.3881 76.1169 17.8417 76.347 18.3348C76.5771 18.8279 76.6921 19.3177 76.6921 19.8042C76.6921 19.8107 76.6921 19.8239 76.6921 19.8436C76.6921 19.8567 76.6921 19.8699 76.6921 19.883H73.6647C73.6647 19.8436 73.6614 19.8074 73.6548 19.7746C73.6548 19.7351 73.6483 19.6957 73.6351 19.6562C73.5825 19.3801 73.4675 19.1204 73.29 18.8772C73.1125 18.6339 72.8626 18.4367 72.5405 18.2855C72.2249 18.1277 71.8305 18.0488 71.3571 18.0488C70.8509 18.0488 70.3973 18.1606 69.9963 18.3841C69.6018 18.6076 69.2895 18.9396 69.0594 19.3801C68.8293 19.814 68.7143 20.3531 68.7143 20.9974C68.7143 21.6285 68.8293 22.1742 69.0594 22.6344C69.2895 23.088 69.6018 23.4364 69.9963 23.6797C70.3973 23.9229 70.8509 24.0445 71.3571 24.0445C71.8765 24.0445 72.3005 23.9656 72.6292 23.8079C72.958 23.6435 73.2045 23.4266 73.3688 23.157C73.5332 22.8809 73.6318 22.5785 73.6647 22.2498H76.6921C76.6921 22.7363 76.5771 23.2326 76.347 23.7388C76.1235 24.2385 75.7882 24.6954 75.3411 25.1096C74.9006 25.5237 74.3484 25.859 73.6844 26.1154C73.0204 26.3718 72.2512 26.5 71.3769 26.5Z" fill="#F2F2F2"/>
<path d="M79.7746 21.9441V19.9225H86.717L86.4211 20.4353C86.4211 20.3827 86.4211 20.3334 86.4211 20.2874C86.4211 20.2348 86.4211 20.1855 86.4211 20.1394C86.4211 19.7647 86.3324 19.4064 86.1549 19.0646C85.9774 18.7161 85.7013 18.4334 85.3265 18.2165C84.9584 17.993 84.485 17.8812 83.9065 17.8812C83.3279 17.8812 82.8283 18.0061 82.4076 18.2559C81.9934 18.4992 81.6745 18.8509 81.451 19.3111C81.2341 19.7713 81.1256 20.3268 81.1256 20.9777C81.1256 21.6482 81.2308 22.2235 81.4411 22.7034C81.6581 23.1767 81.9769 23.5416 82.3977 23.798C82.825 24.0544 83.3542 24.1826 83.9854 24.1826C84.393 24.1826 84.7447 24.1464 85.0405 24.0741C85.3364 23.9952 85.5763 23.8966 85.7604 23.7783C85.9511 23.6599 86.0957 23.5285 86.1943 23.3838C86.2929 23.2392 86.3521 23.0978 86.3718 22.9598H89.3894C89.35 23.4003 89.1987 23.8342 88.9358 24.2615C88.6728 24.6822 88.3079 25.0635 87.8412 25.4054C87.3744 25.7407 86.8057 26.0069 86.1351 26.2042C85.4712 26.4014 84.7118 26.5 83.8572 26.5C82.7001 26.5 81.691 26.2699 80.8297 25.8097C79.9685 25.343 79.3012 24.702 78.8279 23.8868C78.3545 23.065 78.1179 22.1183 78.1179 21.0467C78.1179 19.9619 78.3578 19.012 78.8377 18.1968C79.3242 17.375 79.9981 16.7373 80.8593 16.2836C81.7271 15.8235 82.7297 15.5934 83.867 15.5934C85.0307 15.5934 86.0365 15.8267 86.8846 16.2935C87.7327 16.7537 88.3868 17.4013 88.847 18.2362C89.3072 19.0646 89.5373 20.031 89.5373 21.1354C89.5373 21.2998 89.534 21.4576 89.5275 21.6088C89.5209 21.76 89.511 21.8718 89.4979 21.9441H79.7746Z" fill="#F2F2F2"/>
<path d="M95.8065 26.5C95.182 26.5 94.5804 26.4277 94.0019 26.2831C93.4234 26.1384 92.904 25.9248 92.4438 25.6421C91.9902 25.3594 91.6286 25.0077 91.359 24.5869C91.0961 24.1596 90.9646 23.6632 90.9646 23.0978C90.9646 23.0716 90.9646 23.042 90.9646 23.0091C90.9646 22.9697 90.9646 22.9401 90.9646 22.9203H94.0019C94.0019 22.9401 94.0019 22.9631 94.0019 22.9894C94.0019 23.0091 94.0019 23.0321 94.0019 23.0584C94.0019 23.4397 94.1695 23.7191 94.5048 23.8966C94.8467 24.0741 95.3069 24.1629 95.8854 24.1629C96.1878 24.1629 96.4771 24.1333 96.7532 24.0741C97.0359 24.0084 97.266 23.9065 97.4435 23.7684C97.6276 23.6238 97.7196 23.443 97.7196 23.226C97.7196 22.8776 97.5257 22.6311 97.1378 22.4864C96.7565 22.3418 96.1418 22.1972 95.2937 22.0525C94.8138 21.9737 94.3273 21.8619 93.8342 21.7173C93.3412 21.5726 92.8876 21.382 92.4734 21.1453C92.0592 20.9021 91.7272 20.5963 91.4774 20.2282C91.2276 19.8535 91.1027 19.3998 91.1027 18.8673C91.1027 18.1573 91.3163 17.5591 91.7436 17.0726C92.1775 16.5861 92.7528 16.2179 93.4694 15.9681C94.186 15.7183 94.9749 15.5934 95.8361 15.5934C96.6579 15.5934 97.4238 15.7314 98.1338 16.0075C98.8438 16.2771 99.4191 16.6682 99.8595 17.181C100.3 17.6872 100.52 18.2987 100.52 19.0152C100.52 19.0284 100.52 19.0481 100.52 19.0744C100.52 19.1007 100.52 19.127 100.52 19.1533H97.5125C97.5125 19.127 97.5125 19.104 97.5125 19.0843C97.5125 19.0646 97.5125 19.0481 97.5125 19.035C97.5125 18.772 97.4271 18.5583 97.2561 18.394C97.0918 18.2296 96.8814 18.108 96.625 18.0291C96.3686 17.9436 96.1024 17.9009 95.8262 17.9009C95.5764 17.9009 95.3167 17.9305 95.0472 17.9897C94.7842 18.0423 94.5607 18.1343 94.3766 18.2658C94.1925 18.3907 94.1005 18.5682 94.1005 18.7983C94.1005 19.0218 94.1991 19.2059 94.3963 19.3505C94.5936 19.4886 94.8697 19.6036 95.2247 19.6957C95.5797 19.7811 95.9906 19.8633 96.4574 19.9422C96.8978 20.0145 97.3613 20.1164 97.8478 20.2479C98.3409 20.3728 98.8011 20.5536 99.2284 20.7903C99.6623 21.0204 100.011 21.3261 100.274 21.7074C100.543 22.0821 100.678 22.5588 100.678 23.1373C100.678 23.7355 100.54 24.2483 100.264 24.6757C99.9877 25.103 99.613 25.4514 99.1397 25.721C98.6729 25.9839 98.1502 26.1779 97.5717 26.3028C96.9997 26.4343 96.4114 26.5 95.8065 26.5Z" fill="#F2F2F2"/>
<path d="M106.939 26.5C106.315 26.5 105.713 26.4277 105.134 26.2831C104.556 26.1384 104.037 25.9248 103.576 25.6421C103.123 25.3594 102.761 25.0077 102.492 24.5869C102.229 24.1596 102.097 23.6632 102.097 23.0978C102.097 23.0716 102.097 23.042 102.097 23.0091C102.097 22.9697 102.097 22.9401 102.097 22.9203H105.134C105.134 22.9401 105.134 22.9631 105.134 22.9894C105.134 23.0091 105.134 23.0321 105.134 23.0584C105.134 23.4397 105.302 23.7191 105.637 23.8966C105.979 24.0741 106.439 24.1629 107.018 24.1629C107.32 24.1629 107.61 24.1333 107.886 24.0741C108.168 24.0084 108.399 23.9065 108.576 23.7684C108.76 23.6238 108.852 23.443 108.852 23.226C108.852 22.8776 108.658 22.6311 108.27 22.4864C107.889 22.3418 107.274 22.1972 106.426 22.0525C105.946 21.9737 105.46 21.8619 104.967 21.7173C104.474 21.5726 104.02 21.382 103.606 21.1453C103.192 20.9021 102.86 20.5963 102.61 20.2282C102.36 19.8535 102.235 19.3998 102.235 18.8673C102.235 18.1573 102.449 17.5591 102.876 17.0726C103.31 16.5861 103.885 16.2179 104.602 15.9681C105.319 15.7183 106.107 15.5934 106.969 15.5934C107.79 15.5934 108.556 15.7314 109.266 16.0075C109.976 16.2771 110.552 16.6682 110.992 17.181C111.433 17.6872 111.653 18.2987 111.653 19.0152C111.653 19.0284 111.653 19.0481 111.653 19.0744C111.653 19.1007 111.653 19.127 111.653 19.1533H108.645C108.645 19.127 108.645 19.104 108.645 19.0843C108.645 19.0646 108.645 19.0481 108.645 19.035C108.645 18.772 108.56 18.5583 108.389 18.394C108.224 18.2296 108.014 18.108 107.758 18.0291C107.501 17.9436 107.235 17.9009 106.959 17.9009C106.709 17.9009 106.449 17.9305 106.18 17.9897C105.917 18.0423 105.693 18.1343 105.509 18.2658C105.325 18.3907 105.233 18.5682 105.233 18.7983C105.233 19.0218 105.332 19.2059 105.529 19.3505C105.726 19.4886 106.002 19.6036 106.357 19.6957C106.712 19.7811 107.123 19.8633 107.59 19.9422C108.03 20.0145 108.494 20.1164 108.98 20.2479C109.473 20.3728 109.934 20.5536 110.361 20.7903C110.795 21.0204 111.143 21.3261 111.406 21.7074C111.676 22.0821 111.811 22.5588 111.811 23.1373C111.811 23.7355 111.673 24.2483 111.396 24.6757C111.12 25.103 110.746 25.4514 110.272 25.721C109.805 25.9839 109.283 26.1779 108.704 26.3028C108.132 26.4343 107.544 26.5 106.939 26.5Z" fill="#F2F2F2"/>
<path d="M114.927 26.2633V18.1573H112.748V15.7906H114.927V15.0707C114.927 14.3738 115.019 13.7789 115.203 13.2858C115.394 12.7862 115.65 12.372 115.973 12.0433C116.295 11.708 116.656 11.445 117.057 11.2544C117.465 11.0571 117.882 10.9191 118.31 10.8402C118.744 10.7547 119.164 10.712 119.572 10.712C120.006 10.712 120.328 10.7383 120.538 10.7909C120.755 10.8369 120.9 10.8763 120.972 10.9092V13.2858C120.893 13.2595 120.752 13.2299 120.548 13.197C120.351 13.1642 120.137 13.1477 119.907 13.1477C119.526 13.1477 119.21 13.197 118.961 13.2957C118.711 13.3943 118.513 13.5389 118.369 13.7296C118.224 13.9136 118.122 14.1339 118.063 14.3903C118.004 14.6401 117.974 14.9129 117.974 15.2088V15.7906H120.785V18.1573H117.974V26.2633H114.927Z" fill="#F2F2F2"/>
<path d="M125.487 26.4803C124.725 26.4803 124.044 26.3587 123.446 26.1154C122.854 25.8722 122.391 25.5205 122.055 25.0603C121.72 24.6001 121.553 24.0413 121.553 23.3838C121.553 22.6409 121.756 22.0361 122.164 21.5693C122.572 21.1026 123.111 20.7476 123.781 20.5043C124.458 20.2545 125.191 20.0901 125.98 20.0112C127.131 19.8995 127.923 19.7976 128.357 19.7055C128.797 19.6135 129.018 19.4524 129.018 19.2223C129.018 19.2158 129.018 19.2092 129.018 19.2026C129.018 18.8147 128.83 18.509 128.455 18.2855C128.087 18.062 127.571 17.9502 126.907 17.9502C126.204 17.9502 125.665 18.0784 125.29 18.3348C124.922 18.5846 124.738 18.9692 124.738 19.4886H121.73C121.73 18.6471 121.957 17.9371 122.41 17.3585C122.871 16.78 123.492 16.3428 124.274 16.047C125.057 15.7446 125.941 15.5934 126.927 15.5934C127.847 15.5934 128.699 15.7347 129.481 16.0174C130.263 16.2935 130.891 16.711 131.365 17.2698C131.845 17.8286 132.084 18.5386 132.084 19.3998C132.084 19.5379 132.084 19.676 132.084 19.814C132.084 19.9455 132.084 20.0803 132.084 20.2183V23.9262C132.084 24.1957 132.091 24.4554 132.104 24.7052C132.124 24.9485 132.163 25.172 132.223 25.3758C132.288 25.6059 132.37 25.7966 132.469 25.9478C132.568 26.099 132.65 26.2042 132.716 26.2633H129.708C129.662 26.2173 129.59 26.122 129.491 25.9774C129.399 25.8327 129.32 25.6651 129.254 25.4744C129.175 25.2443 129.116 25.0142 129.077 24.7841C129.044 24.5475 129.027 24.2713 129.027 23.9558L129.659 24.3897C129.474 24.8236 129.175 25.1983 128.761 25.5139C128.354 25.8229 127.867 26.0628 127.302 26.2338C126.743 26.3981 126.138 26.4803 125.487 26.4803ZM126.306 24.1925C126.786 24.1925 127.233 24.107 127.647 23.9361C128.068 23.7586 128.409 23.4824 128.672 23.1077C128.935 22.733 129.067 22.2432 129.067 21.6384V20.5832L129.826 21.3228C129.392 21.4806 128.889 21.6121 128.317 21.7173C127.752 21.8159 127.187 21.8948 126.621 21.9539C125.951 22.0197 125.448 22.1347 125.112 22.2991C124.784 22.4569 124.619 22.7264 124.619 23.1077C124.619 23.4693 124.761 23.7421 125.043 23.9262C125.326 24.1037 125.747 24.1925 126.306 24.1925Z" fill="#F2F2F2"/>
<path d="M138.68 26.5C138.056 26.5 137.454 26.4277 136.876 26.2831C136.297 26.1384 135.778 25.9248 135.318 25.6421C134.864 25.3594 134.502 25.0077 134.233 24.5869C133.97 24.1596 133.838 23.6632 133.838 23.0978C133.838 23.0716 133.838 23.042 133.838 23.0091C133.838 22.9697 133.838 22.9401 133.838 22.9203H136.876C136.876 22.9401 136.876 22.9631 136.876 22.9894C136.876 23.0091 136.876 23.0321 136.876 23.0584C136.876 23.4397 137.043 23.7191 137.379 23.8966C137.72 24.0741 138.181 24.1629 138.759 24.1629C139.062 24.1629 139.351 24.1333 139.627 24.0741C139.91 24.0084 140.14 23.9065 140.317 23.7684C140.501 23.6238 140.593 23.443 140.593 23.226C140.593 22.8776 140.399 22.6311 140.012 22.4864C139.63 22.3418 139.016 22.1972 138.168 22.0525C137.688 21.9737 137.201 21.8619 136.708 21.7173C136.215 21.5726 135.761 21.382 135.347 21.1453C134.933 20.9021 134.601 20.5963 134.351 20.2282C134.101 19.8535 133.976 19.3998 133.976 18.8673C133.976 18.1573 134.19 17.5591 134.617 17.0726C135.051 16.5861 135.627 16.2179 136.343 15.9681C137.06 15.7183 137.849 15.5934 138.71 15.5934C139.532 15.5934 140.298 15.7314 141.008 16.0075C141.718 16.2771 142.293 16.6682 142.733 17.181C143.174 17.6872 143.394 18.2987 143.394 19.0152C143.394 19.0284 143.394 19.0481 143.394 19.0744C143.394 19.1007 143.394 19.127 143.394 19.1533H140.386C140.386 19.127 140.386 19.104 140.386 19.0843C140.386 19.0646 140.386 19.0481 140.386 19.035C140.386 18.772 140.301 18.5583 140.13 18.394C139.966 18.2296 139.755 18.108 139.499 18.0291C139.242 17.9436 138.976 17.9009 138.7 17.9009C138.45 17.9009 138.191 17.9305 137.921 17.9897C137.658 18.0423 137.435 18.1343 137.25 18.2658C137.066 18.3907 136.974 18.5682 136.974 18.7983C136.974 19.0218 137.073 19.2059 137.27 19.3505C137.467 19.4886 137.743 19.6036 138.099 19.6957C138.454 19.7811 138.864 19.8633 139.331 19.9422C139.772 20.0145 140.235 20.1164 140.722 20.2479C141.215 20.3728 141.675 20.5536 142.102 20.7903C142.536 21.0204 142.885 21.3261 143.148 21.7074C143.417 22.0821 143.552 22.5588 143.552 23.1373C143.552 23.7355 143.414 24.2483 143.138 24.6757C142.862 25.103 142.487 25.4514 142.013 25.721C141.547 25.9839 141.024 26.1779 140.446 26.3028C139.874 26.4343 139.285 26.5 138.68 26.5Z" fill="#F2F2F2"/>
<path d="M150.525 26.4803C150.124 26.4803 149.71 26.4441 149.282 26.3718C148.861 26.3061 148.467 26.1713 148.099 25.9675C147.737 25.7571 147.445 25.4514 147.221 25.0504C146.998 24.6494 146.886 24.1201 146.886 23.4627C146.886 23.3181 146.886 23.1702 146.886 23.019C146.886 22.8677 146.886 22.7165 146.886 22.5653V18.1573H144.47V15.7906H145.15C145.545 15.7906 145.857 15.7741 146.087 15.7413C146.324 15.7084 146.498 15.6262 146.61 15.4947C146.728 15.3567 146.804 15.143 146.837 14.8538C146.869 14.5645 146.886 14.1667 146.886 13.6605V12.3391H149.953V15.7906H153V18.1573H149.953V21.9243C149.953 22.0427 149.953 22.1577 149.953 22.2695C149.953 22.3813 149.953 22.4897 149.953 22.5949C149.953 23.0485 150.005 23.4167 150.111 23.6994C150.222 23.9821 150.495 24.1234 150.929 24.1234C151.146 24.1234 151.35 24.1037 151.54 24.0643C151.738 24.0248 151.886 23.9854 151.984 23.9459V26.2436C151.846 26.3028 151.652 26.3554 151.402 26.4014C151.153 26.454 150.86 26.4803 150.525 26.4803Z" fill="#F2F2F2"/>
</svg>
