<svg width="149" height="32" viewBox="0 0 149 32" fill="none" xmlns="http://www.w3.org/2000/svg">
<path d="M14.4 6.4C13.52 6.4 12.7669 6.0864 12.1408 5.4592C11.5136 4.83307 11.2 4.08 11.2 3.2C11.2 2.32 11.5136 1.5664 12.1408 0.9392C12.7669 0.313066 13.52 0 14.4 0C15.28 0 16.0336 0.313066 16.6608 0.9392C17.2869 1.5664 17.6 2.32 17.6 3.2C17.6 4.08 17.2869 4.83307 16.6608 5.4592C16.0336 6.0864 15.28 6.4 14.4 6.4ZM9.6 32V11.2H0V8H28.8V11.2H19.2V32H16V22.4H12.8V32H9.6Z" fill="white"/>
<path d="M40.0758 23.8743C39.3132 23.8743 38.6328 23.7527 38.0345 23.5094C37.4428 23.2662 36.9794 22.9145 36.6441 22.4543C36.3088 21.9941 36.1411 21.4353 36.1411 20.7778C36.1411 20.0349 36.3449 19.4301 36.7525 18.9633C37.1602 18.4966 37.6992 18.1416 38.3698 17.8983C39.047 17.6485 39.78 17.4841 40.5689 17.4052C41.7194 17.2935 42.5116 17.1916 42.9455 17.0995C43.386 17.0075 43.6062 16.8464 43.6062 16.6163C43.6062 16.6098 43.6062 16.6032 43.6062 16.5966C43.6062 16.2087 43.4188 15.903 43.0441 15.6795C42.6759 15.456 42.1599 15.3442 41.4959 15.3442C40.7924 15.3442 40.2533 15.4724 39.8786 15.7288C39.5104 15.9786 39.3264 16.3632 39.3264 16.8826H36.3186C36.3186 16.0411 36.5455 15.3311 36.9991 14.7525C37.4593 14.174 38.0805 13.7368 38.8629 13.441C39.6452 13.1386 40.5294 12.9874 41.5156 12.9874C42.436 12.9874 43.2873 13.1287 44.0697 13.4114C44.852 13.6875 45.4799 14.105 45.9532 14.6638C46.4331 15.2226 46.6731 15.9326 46.6731 16.7938C46.6731 16.9319 46.6731 17.07 46.6731 17.208C46.6731 17.3395 46.6731 17.4743 46.6731 17.6123V21.3202C46.6731 21.5898 46.6797 21.8494 46.6928 22.0993C46.7125 22.3425 46.752 22.566 46.8111 22.7698C46.8769 22.9999 46.9591 23.1906 47.0577 23.3418C47.1563 23.493 47.2385 23.5982 47.3042 23.6574H44.2965C44.2505 23.6113 44.1782 23.516 44.0795 23.3714C43.9875 23.2267 43.9086 23.0591 43.8429 22.8684C43.764 22.6383 43.7048 22.4082 43.6654 22.1781C43.6325 21.9415 43.6161 21.6654 43.6161 21.3498L44.2472 21.7837C44.0631 22.2176 43.764 22.5923 43.3498 22.9079C42.9422 23.2169 42.4557 23.4568 41.8903 23.6278C41.3315 23.7921 40.7267 23.8743 40.0758 23.8743ZM40.8943 21.5865C41.3742 21.5865 41.8213 21.501 42.2355 21.3301C42.6562 21.1526 42.9981 20.8764 43.261 20.5017C43.524 20.127 43.6555 19.6372 43.6555 19.0324V17.9772L44.4148 18.7168C43.9809 18.8746 43.478 19.0061 42.906 19.1113C42.3407 19.2099 41.7753 19.2888 41.2099 19.3479C40.5393 19.4137 40.0364 19.5287 39.7011 19.6931C39.3724 19.8509 39.208 20.1204 39.208 20.5017C39.208 20.8633 39.3494 21.1361 39.6321 21.3202C39.9148 21.4977 40.3355 21.5865 40.8943 21.5865Z" fill="white"/>
<path d="M54.186 23.894C53.0356 23.894 52.0264 23.6639 51.1586 23.2037C50.2908 22.737 49.6169 22.0894 49.137 21.261C48.6637 20.4327 48.427 19.4761 48.427 18.3914C48.427 17.2935 48.6637 16.3435 49.137 15.5415C49.6169 14.7328 50.2908 14.105 51.1586 13.6579C52.0264 13.2109 53.0356 12.9874 54.186 12.9874C55.0473 12.9874 55.8099 13.1156 56.4739 13.372C57.1379 13.6218 57.6934 13.9538 58.1404 14.368C58.5875 14.7821 58.9261 15.2358 59.1562 15.7288C59.3863 16.2219 59.5013 16.7117 59.5013 17.1982C59.5013 17.2047 59.5013 17.2179 59.5013 17.2376C59.5013 17.2508 59.5013 17.2639 59.5013 17.2771H56.4739C56.4739 17.2376 56.4706 17.2014 56.464 17.1686C56.464 17.1291 56.4574 17.0897 56.4443 17.0502C56.3917 16.7741 56.2767 16.5144 56.0991 16.2712C55.9216 16.0279 55.6718 15.8307 55.3497 15.6795C55.0341 15.5217 54.6397 15.4428 54.1663 15.4428C53.6601 15.4428 53.2065 15.5546 52.8055 15.7781C52.411 16.0016 52.0987 16.3336 51.8686 16.7741C51.6385 17.208 51.5235 17.7471 51.5235 18.3914C51.5235 19.0225 51.6385 19.5682 51.8686 20.0284C52.0987 20.482 52.411 20.8304 52.8055 21.0737C53.2065 21.3169 53.6601 21.4385 54.1663 21.4385C54.6857 21.4385 55.1097 21.3597 55.4384 21.2019C55.7671 21.0375 56.0137 20.8206 56.178 20.551C56.3424 20.2749 56.441 19.9725 56.4739 19.6438H59.5013C59.5013 20.1303 59.3863 20.6266 59.1562 21.1328C58.9326 21.6325 58.5974 22.0894 58.1503 22.5036C57.7098 22.9177 57.1576 23.253 56.4936 23.5094C55.8296 23.7658 55.0604 23.894 54.186 23.894Z" fill="white"/>
<path d="M66.6861 23.894C65.5356 23.894 64.5265 23.6639 63.6587 23.2037C62.7909 22.737 62.117 22.0894 61.6371 21.261C61.1637 20.4327 60.9271 19.4761 60.9271 18.3914C60.9271 17.2935 61.1637 16.3435 61.6371 15.5415C62.117 14.7328 62.7909 14.105 63.6587 13.6579C64.5265 13.2109 65.5356 12.9874 66.6861 12.9874C67.5473 12.9874 68.3099 13.1156 68.9739 13.372C69.6379 13.6218 70.1934 13.9538 70.6405 14.368C71.0875 14.7821 71.4261 15.2358 71.6562 15.7288C71.8863 16.2219 72.0014 16.7117 72.0014 17.1982C72.0014 17.2047 72.0014 17.2179 72.0014 17.2376C72.0014 17.2508 72.0014 17.2639 72.0014 17.2771H68.9739C68.9739 17.2376 68.9706 17.2014 68.9641 17.1686C68.9641 17.1291 68.9575 17.0897 68.9443 17.0502C68.8917 16.7741 68.7767 16.5144 68.5992 16.2712C68.4217 16.0279 68.1719 15.8307 67.8497 15.6795C67.5342 15.5217 67.1397 15.4428 66.6664 15.4428C66.1601 15.4428 65.7065 15.5546 65.3055 15.7781C64.911 16.0016 64.5988 16.3336 64.3687 16.7741C64.1386 17.208 64.0235 17.7471 64.0235 18.3914C64.0235 19.0225 64.1386 19.5682 64.3687 20.0284C64.5988 20.482 64.911 20.8304 65.3055 21.0737C65.7065 21.3169 66.1601 21.4385 66.6664 21.4385C67.1857 21.4385 67.6098 21.3597 67.9385 21.2019C68.2672 21.0375 68.5137 20.8206 68.6781 20.551C68.8424 20.2749 68.9411 19.9725 68.9739 19.6438H72.0014C72.0014 20.1303 71.8863 20.6266 71.6562 21.1328C71.4327 21.6325 71.0974 22.0894 70.6504 22.5036C70.2099 22.9177 69.6576 23.253 68.9936 23.5094C68.3296 23.7658 67.5605 23.894 66.6861 23.894Z" fill="white"/>
<path d="M75.0838 19.3381V17.3165H82.0262L81.7304 17.8293C81.7304 17.7767 81.7304 17.7274 81.7304 17.6814C81.7304 17.6288 81.7304 17.5795 81.7304 17.5334C81.7304 17.1587 81.6416 16.8004 81.4641 16.4586C81.2866 16.1101 81.0105 15.8274 80.6358 15.6105C80.2676 15.387 79.7942 15.2752 79.2157 15.2752C78.6372 15.2752 78.1375 15.4001 77.7168 15.6499C77.3026 15.8932 76.9838 16.2449 76.7602 16.7051C76.5433 17.1653 76.4348 17.7208 76.4348 18.3717C76.4348 19.0422 76.54 19.6175 76.7504 20.0974C76.9673 20.5707 77.2862 20.9356 77.7069 21.192C78.1343 21.4484 78.6635 21.5766 79.2946 21.5766C79.7022 21.5766 80.0539 21.5404 80.3498 21.4681C80.6456 21.3892 80.8856 21.2906 81.0697 21.1723C81.2603 21.054 81.4049 20.9225 81.5036 20.7778C81.6022 20.6332 81.6613 20.4919 81.6811 20.3538H84.6986C84.6592 20.7943 84.508 21.2282 84.245 21.6555C83.982 22.0762 83.6172 22.4576 83.1504 22.7994C82.6836 23.1347 82.115 23.401 81.4444 23.5982C80.7804 23.7954 80.0211 23.894 79.1664 23.894C78.0093 23.894 77.0002 23.6639 76.139 23.2037C75.2777 22.737 74.6105 22.096 74.1371 21.2808C73.6638 20.459 73.4271 19.5123 73.4271 18.4407C73.4271 17.3559 73.6671 16.406 74.147 15.5908C74.6335 14.769 75.3073 14.1313 76.1686 13.6777C77.0364 13.2175 78.0389 12.9874 79.1763 12.9874C80.3399 12.9874 81.3458 13.2207 82.1938 13.6875C83.0419 14.1477 83.6961 14.7953 84.1563 15.6302C84.6165 16.4586 84.8466 17.425 84.8466 18.5294C84.8466 18.6938 84.8433 18.8516 84.8367 19.0028C84.8301 19.154 84.8203 19.2658 84.8071 19.3381H75.0838Z" fill="white"/>
<path d="M91.1158 23.894C90.4912 23.894 89.8897 23.8217 89.3111 23.6771C88.7326 23.5324 88.2132 23.3188 87.753 23.0361C87.2994 22.7534 86.9378 22.4017 86.6683 21.9809C86.4053 21.5536 86.2738 21.0572 86.2738 20.4919C86.2738 20.4656 86.2738 20.436 86.2738 20.4031C86.2738 20.3637 86.2738 20.3341 86.2738 20.3143H89.3111C89.3111 20.3341 89.3111 20.3571 89.3111 20.3834C89.3111 20.4031 89.3111 20.4261 89.3111 20.4524C89.3111 20.8337 89.4788 21.1131 89.8141 21.2906C90.1559 21.4681 90.6161 21.5569 91.1946 21.5569C91.4971 21.5569 91.7863 21.5273 92.0624 21.4681C92.3451 21.4024 92.5752 21.3005 92.7527 21.1624C92.9368 21.0178 93.0289 20.837 93.0289 20.6201C93.0289 20.2716 92.8349 20.0251 92.447 19.8804C92.0657 19.7358 91.451 19.5912 90.603 19.4466C90.123 19.3677 89.6366 19.2559 89.1435 19.1113C88.6504 18.9666 88.1968 18.776 87.7826 18.5393C87.3684 18.2961 87.0364 17.9904 86.7866 17.6222C86.5368 17.2475 86.4119 16.7938 86.4119 16.2613C86.4119 15.5513 86.6256 14.9531 87.0529 14.4666C87.4868 13.9801 88.062 13.6119 88.7786 13.3621C89.4952 13.1123 90.2841 12.9874 91.1453 12.9874C91.9671 12.9874 92.733 13.1254 93.443 13.4015C94.1531 13.6711 94.7283 14.0622 95.1688 14.575C95.6092 15.0813 95.8295 15.6927 95.8295 16.4093C95.8295 16.4224 95.8295 16.4421 95.8295 16.4684C95.8295 16.4947 95.8295 16.521 95.8295 16.5473H92.8218C92.8218 16.521 92.8218 16.498 92.8218 16.4783C92.8218 16.4586 92.8218 16.4421 92.8218 16.429C92.8218 16.166 92.7363 15.9523 92.5654 15.788C92.401 15.6236 92.1906 15.502 91.9342 15.4231C91.6779 15.3377 91.4116 15.2949 91.1355 15.2949C90.8857 15.2949 90.626 15.3245 90.3564 15.3837C90.0935 15.4363 89.8699 15.5283 89.6859 15.6598C89.5018 15.7847 89.4097 15.9622 89.4097 16.1923C89.4097 16.4158 89.5084 16.5999 89.7056 16.7445C89.9028 16.8826 90.1789 16.9976 90.5339 17.0897C90.8889 17.1751 91.2998 17.2573 91.7666 17.3362C92.2071 17.4085 92.6706 17.5104 93.1571 17.6419C93.6501 17.7668 94.1103 17.9476 94.5376 18.1843C94.9715 18.4144 95.32 18.7201 95.583 19.1014C95.8525 19.4761 95.9873 19.9528 95.9873 20.5313C95.9873 21.1296 95.8492 21.6423 95.5731 22.0697C95.297 22.497 94.9222 22.8454 94.4489 23.115C93.9821 23.3779 93.4595 23.5719 92.8809 23.6968C92.309 23.8283 91.7206 23.894 91.1158 23.894Z" fill="white"/>
<path d="M102.248 23.894C101.624 23.894 101.022 23.8217 100.444 23.6771C99.8651 23.5324 99.3458 23.3188 98.8856 23.0361C98.432 22.7534 98.0704 22.4017 97.8008 21.9809C97.5379 21.5536 97.4064 21.0572 97.4064 20.4919C97.4064 20.4656 97.4064 20.436 97.4064 20.4031C97.4064 20.3637 97.4064 20.3341 97.4064 20.3143H100.444C100.444 20.3341 100.444 20.3571 100.444 20.3834C100.444 20.4031 100.444 20.4261 100.444 20.4524C100.444 20.8337 100.611 21.1131 100.947 21.2906C101.288 21.4681 101.749 21.5569 102.327 21.5569C102.63 21.5569 102.919 21.5273 103.195 21.4681C103.478 21.4024 103.708 21.3005 103.885 21.1624C104.069 21.0178 104.161 20.837 104.161 20.6201C104.161 20.2716 103.967 20.0251 103.58 19.8804C103.198 19.7358 102.584 19.5912 101.736 19.4466C101.256 19.3677 100.769 19.2559 100.276 19.1113C99.783 18.9666 99.3293 18.776 98.9152 18.5393C98.501 18.2961 98.169 17.9904 97.9192 17.6222C97.6694 17.2475 97.5444 16.7938 97.5444 16.2613C97.5444 15.5513 97.7581 14.9531 98.1854 14.4666C98.6193 13.9801 99.1946 13.6119 99.9112 13.3621C100.628 13.1123 101.417 12.9874 102.278 12.9874C103.1 12.9874 103.866 13.1254 104.576 13.4015C105.286 13.6711 105.861 14.0622 106.301 14.575C106.742 15.0813 106.962 15.6927 106.962 16.4093C106.962 16.4224 106.962 16.4421 106.962 16.4684C106.962 16.4947 106.962 16.521 106.962 16.5473H103.954C103.954 16.521 103.954 16.498 103.954 16.4783C103.954 16.4586 103.954 16.4421 103.954 16.429C103.954 16.166 103.869 15.9523 103.698 15.788C103.534 15.6236 103.323 15.502 103.067 15.4231C102.81 15.3377 102.544 15.2949 102.268 15.2949C102.018 15.2949 101.759 15.3245 101.489 15.3837C101.226 15.4363 101.002 15.5283 100.818 15.6598C100.634 15.7847 100.542 15.9622 100.542 16.1923C100.542 16.4158 100.641 16.5999 100.838 16.7445C101.035 16.8826 101.311 16.9976 101.666 17.0897C102.021 17.1751 102.432 17.2573 102.899 17.3362C103.34 17.4085 103.803 17.5104 104.29 17.6419C104.783 17.7668 105.243 17.9476 105.67 18.1843C106.104 18.4144 106.453 18.7201 106.716 19.1014C106.985 19.4761 107.12 19.9528 107.12 20.5313C107.12 21.1296 106.982 21.6423 106.706 22.0697C106.43 22.497 106.055 22.8454 105.581 23.115C105.115 23.3779 104.592 23.5719 104.013 23.6968C103.442 23.8283 102.853 23.894 102.248 23.894Z" fill="white"/>
<path d="M110.236 23.6574V15.5513H108.057V13.1846H110.236V12.4647C110.236 11.7678 110.329 11.1729 110.513 10.6798C110.703 10.1802 110.96 9.76598 111.282 9.43727C111.604 9.10198 111.965 8.83902 112.367 8.64836C112.774 8.45113 113.192 8.31308 113.619 8.23418C114.053 8.14872 114.474 8.10599 114.881 8.10599C115.315 8.10599 115.637 8.13228 115.848 8.18488C116.065 8.2309 116.209 8.27034 116.281 8.30321V10.6798C116.203 10.6535 116.061 10.6239 115.857 10.591C115.66 10.5582 115.447 10.5417 115.216 10.5417C114.835 10.5417 114.52 10.591 114.27 10.6897C114.02 10.7883 113.823 10.9329 113.678 11.1236C113.533 11.3076 113.432 11.5279 113.372 11.7843C113.313 12.0341 113.284 12.3069 113.284 12.6028V13.1846H116.094V15.5513H113.284V23.6574H110.236Z" fill="white"/>
<path d="M120.796 23.8743C120.034 23.8743 119.353 23.7527 118.755 23.5094C118.163 23.2662 117.7 22.9145 117.365 22.4543C117.029 21.9941 116.862 21.4353 116.862 20.7778C116.862 20.0349 117.066 19.4301 117.473 18.9633C117.881 18.4966 118.42 18.1416 119.09 17.8983C119.768 17.6485 120.501 17.4841 121.29 17.4052C122.44 17.2935 123.232 17.1916 123.666 17.0995C124.107 17.0075 124.327 16.8464 124.327 16.6163C124.327 16.6098 124.327 16.6032 124.327 16.5966C124.327 16.2087 124.139 15.903 123.765 15.6795C123.397 15.456 122.88 15.3442 122.216 15.3442C121.513 15.3442 120.974 15.4724 120.599 15.7288C120.231 15.9786 120.047 16.3632 120.047 16.8826H117.039C117.039 16.0411 117.266 15.3311 117.72 14.7525C118.18 14.174 118.801 13.7368 119.583 13.441C120.366 13.1386 121.25 12.9874 122.236 12.9874C123.157 12.9874 124.008 13.1287 124.79 13.4114C125.573 13.6875 126.2 14.105 126.674 14.6638C127.154 15.2226 127.394 15.9326 127.394 16.7938C127.394 16.9319 127.394 17.07 127.394 17.208C127.394 17.3395 127.394 17.4743 127.394 17.6123V21.3202C127.394 21.5898 127.4 21.8494 127.413 22.0993C127.433 22.3425 127.473 22.566 127.532 22.7698C127.597 22.9999 127.68 23.1906 127.778 23.3418C127.877 23.493 127.959 23.5982 128.025 23.6574H125.017C124.971 23.6113 124.899 23.516 124.8 23.3714C124.708 23.2267 124.629 23.0591 124.563 22.8684C124.485 22.6383 124.425 22.4082 124.386 22.1781C124.353 21.9415 124.337 21.6654 124.337 21.3498L124.968 21.7837C124.784 22.2176 124.485 22.5923 124.07 22.9079C123.663 23.2169 123.176 23.4568 122.611 23.6278C122.052 23.7921 121.447 23.8743 120.796 23.8743ZM121.615 21.5865C122.095 21.5865 122.542 21.501 122.956 21.3301C123.377 21.1526 123.719 20.8764 123.982 20.5017C124.245 20.127 124.376 19.6372 124.376 19.0324V17.9772L125.135 18.7168C124.702 18.8746 124.199 19.0061 123.627 19.1113C123.061 19.2099 122.496 19.2888 121.931 19.3479C121.26 19.4137 120.757 19.5287 120.422 19.6931C120.093 19.8509 119.929 20.1204 119.929 20.5017C119.929 20.8633 120.07 21.1361 120.353 21.3202C120.635 21.4977 121.056 21.5865 121.615 21.5865Z" fill="white"/>
<path d="M133.99 23.894C133.365 23.894 132.763 23.8217 132.185 23.6771C131.606 23.5324 131.087 23.3188 130.627 23.0361C130.173 22.7534 129.812 22.4017 129.542 21.9809C129.279 21.5536 129.148 21.0572 129.148 20.4919C129.148 20.4656 129.148 20.436 129.148 20.4031C129.148 20.3637 129.148 20.3341 129.148 20.3143H132.185C132.185 20.3341 132.185 20.3571 132.185 20.3834C132.185 20.4031 132.185 20.4261 132.185 20.4524C132.185 20.8337 132.353 21.1131 132.688 21.2906C133.03 21.4681 133.49 21.5569 134.068 21.5569C134.371 21.5569 134.66 21.5273 134.936 21.4681C135.219 21.4024 135.449 21.3005 135.627 21.1624C135.811 21.0178 135.903 20.837 135.903 20.6201C135.903 20.2716 135.709 20.0251 135.321 19.8804C134.94 19.7358 134.325 19.5912 133.477 19.4466C132.997 19.3677 132.51 19.2559 132.017 19.1113C131.524 18.9666 131.071 18.776 130.656 18.5393C130.242 18.2961 129.91 17.9904 129.66 17.6222C129.411 17.2475 129.286 16.7938 129.286 16.2613C129.286 15.5513 129.499 14.9531 129.927 14.4666C130.361 13.9801 130.936 13.6119 131.652 13.3621C132.369 13.1123 133.158 12.9874 134.019 12.9874C134.841 12.9874 135.607 13.1254 136.317 13.4015C137.027 13.6711 137.602 14.0622 138.043 14.575C138.483 15.0813 138.703 15.6927 138.703 16.4093C138.703 16.4224 138.703 16.4421 138.703 16.4684C138.703 16.4947 138.703 16.521 138.703 16.5473H135.696C135.696 16.521 135.696 16.498 135.696 16.4783C135.696 16.4586 135.696 16.4421 135.696 16.429C135.696 16.166 135.61 15.9523 135.439 15.788C135.275 15.6236 135.064 15.502 134.808 15.4231C134.552 15.3377 134.285 15.2949 134.009 15.2949C133.759 15.2949 133.5 15.3245 133.23 15.3837C132.967 15.4363 132.744 15.5283 132.56 15.6598C132.376 15.7847 132.284 15.9622 132.284 16.1923C132.284 16.4158 132.382 16.5999 132.579 16.7445C132.777 16.8826 133.053 16.9976 133.408 17.0897C133.763 17.1751 134.174 17.2573 134.64 17.3362C135.081 17.4085 135.544 17.5104 136.031 17.6419C136.524 17.7668 136.984 17.9476 137.411 18.1843C137.845 18.4144 138.194 18.7201 138.457 19.1014C138.726 19.4761 138.861 19.9528 138.861 20.5313C138.861 21.1296 138.723 21.6423 138.447 22.0697C138.171 22.497 137.796 22.8454 137.323 23.115C136.856 23.3779 136.333 23.5719 135.755 23.6968C135.183 23.8283 134.594 23.894 133.99 23.894Z" fill="white"/>
<path d="M145.834 23.8743C145.433 23.8743 145.019 23.8381 144.591 23.7658C144.171 23.7001 143.776 23.5653 143.408 23.3615C143.046 23.1511 142.754 22.8454 142.53 22.4444C142.307 22.0434 142.195 21.5141 142.195 20.8567C142.195 20.7121 142.195 20.5642 142.195 20.413C142.195 20.2618 142.195 20.1105 142.195 19.9593V15.5513H139.779V13.1846H140.46C140.854 13.1846 141.166 13.1682 141.396 13.1353C141.633 13.1024 141.807 13.0202 141.919 12.8887C142.037 12.7507 142.113 12.537 142.146 12.2478C142.179 11.9585 142.195 11.5607 142.195 11.0545V9.73311H145.262V13.1846H148.309V15.5513H145.262V19.3184C145.262 19.4367 145.262 19.5517 145.262 19.6635C145.262 19.7753 145.262 19.8837 145.262 19.9889C145.262 20.4425 145.315 20.8107 145.42 21.0934C145.532 21.3761 145.804 21.5174 146.238 21.5174C146.455 21.5174 146.659 21.4977 146.85 21.4583C147.047 21.4188 147.195 21.3794 147.293 21.3399V23.6376C147.155 23.6968 146.961 23.7494 146.712 23.7954C146.462 23.848 146.169 23.8743 145.834 23.8743Z" fill="white"/>
</svg>
